PathFileType	4	(X/Y/Z)	c:\Git\powerlifing_model_clean\simulations\HC835B\Session1\HC835B_OGR_0006\marker_experimental.trc
DataRate	CameraRate	NumFrames	NumMarkers	Units	OrigDataRate	OrigDataStartFrame	OrigNumFrames
240.000000	240.000000	5	38	mm	240.000000	82	220
Frame#	Time	RPSI			LPSI			RASI			LASI			RTH1			RTH2			RTH3			RTH4			RSK1			RSK2			RSK3			RSK4			RCAL1			RCAL2			RCAL3			RST			RPT			RTN			RFMB			RSMB			RVMB			RFMH			RSMH			RVMH			RPM			LTH1			LTH2			LTH3			LTH4			LSK1			LSK2			LSK3			LSK4			LCAL1			LCAL2			LCAL3			LFMH			LVMH			
		X1	Y1	Z1	X2	Y2	Z2	X3	Y3	Z3	X4	Y4	Z4	X5	Y5	Z5	X6	Y6	Z6	X7	Y7	Z7	X8	Y8	Z8	X9	Y9	Z9	X10	Y10	Z10	X11	Y11	Z11	X12	Y12	Z12	X13	Y13	Z13	X14	Y14	Z14	X15	Y15	Z15	X16	Y16	Z16	X17	Y17	Z17	X18	Y18	Z18	X19	Y19	Z19	X20	Y20	Z20	X21	Y21	Z21	X22	Y22	Z22	X23	Y23	Z23	X24	Y24	Z24	X25	Y25	Z25	X26	Y26	Z26	X27	Y27	Z27	X28	Y28	Z28	X29	Y29	Z29	X30	Y30	Z30	X31	Y31	Z31	X32	Y32	Z32	X33	Y33	Z33	X34	Y34	Z34	X35	Y35	Z35	X36	Y36	Z36	X37	Y37	Z37	X38	Y38	Z38	

83	0.3416666666666667	441.8258056640626	1207.364990234375	-979.5156860351565	333.1409606933594	1204.22265625	-970.357116699219	491.8934326171876	1107.68603515625	-1168.561279296875	259.6068420410157	1135.351318359375	-1162.81787109375	567.6560668945314	865.8057250976565	-987.0438232421877	557.5578002929689	832.113220214844	-1036.993408203125	556.2111206054689	782.7509765625002	-976.4774169921877	534.9027099609376	751.4518432617189	-1021.506652832031	514.4393920898439	427.9571533203126	-686.4248046875001	515.7723388671876	384.0477600097657	-729.2296142578126	510.1240234375001	371.8350524902344	-669.8225708007814	498.5516357421876	329.9076232910157	-711.3536376953126	451.0226440429689	303.5045166015626	-560.7899780273439	408.1137084960939	286.5678405761719	-543.0238647460939	468.9419250488282	275.4077758789063	-525.0728759765626	398.1805114746095	238.1906433105469	-594.0695800781251	491.8469238281251	225.2597656250001	-558.9251098632814	415.8196716308595	199.0923461914063	-638.1099853515626	410.5384826660157	162.0240631103516	-635.5897827148439	463.2819824218751	153.9161071777344	-649.5132446289064	490.3522338867189	172.5268859863282	-558.0748901367189	393.1950683593751	100.8697280883789	-636.7617797851564	447.573944091797	86.4369354248047	-645.3905639648439	495.8553161621095	97.36353302001956	-585.9232788085939	431.7804260253907	36.38595199584962	-670.7277221679689	193.3471069335938	869.4000244140627	-1174.441162109375	197.4649047851563	883.1712646484377	-1233.761962890625	199.6183319091797	802.1220703125002	-1226.826904296875	219.5525512695313	816.382507324219	-1283.619018554688	241.5310668945313	392.8576049804689	-1129.677978515625	237.9608001708985	359.6079711914063	-1173.147216796875	247.7048492431641	334.8589172363282	-1130.978393554688	256.4698486328126	305.4388122558594	-1177.821655273438	309.7536621093751	204.7223663330079	-1034.872436523438	281.4484863281251	165.5652770996094	-1028.717895507813	340.0772094726563	168.1637268066407	-1033.876220703125	342.3049621582032	135.1164245605469	-1252.087890625	240.4324340820313	107.7938385009766	-1209.238891601563	
84	0.3458333333333333	441.413543701172	1209.62744140625	-993.7287597656252	332.7760620117188	1206.166748046875	-984.5902099609377	491.5943908691407	1109.465087890625	-1182.21044921875	258.7701721191407	1137.880004882813	-1177.730712890625	567.4324340820314	867.7151489257815	-999.6470947265627	558.0838623046876	833.9138793945315	-1049.656860351563	556.4611206054689	784.623229980469	-989.158874511719	535.7341918945314	753.1684570312501	-1034.36767578125	515.9054565429689	432.4995422363282	-696.5718994140626	516.5759277343751	387.7935485839845	-738.4765014648439	511.4534606933595	376.7018737792969	-678.8785400390626	499.2102050781251	334.1356506347657	-719.4565429687501	451.7478637695314	311.4753112792969	-568.7006835937501	409.089324951172	294.6625366210938	-550.5246582031251	469.9540100097657	284.5961608886719	-532.2478027343751	399.5284423828126	244.6123046875001	-600.0410156250001	493.6590270996095	233.9535522460938	-564.7349853515626	417.5254516601564	204.7413177490235	-643.4866333007814	412.8051147460939	167.5619354248047	-639.2617187500001	465.5572814941407	159.6502075195313	-653.1950073242189	492.5356445312501	181.1497497558594	-562.3706054687501	396.0082092285157	106.176025390625	-638.6095581054689	450.4634704589845	91.86513519287111	-646.5036010742189	499.0541992187501	105.3539276123047	-588.0127563476564	435.3677978515626	41.31851959228516	-670.8065795898439	194.8920288085938	868.9566650390627	-1185.909545898438	198.3922729492188	882.448425292969	-1245.327758789063	201.2324218750001	801.2974853515627	-1237.92236328125	220.5432128906251	815.2924804687502	-1294.95849609375	241.273910522461	386.7013244628907	-1150.077026367188	238.1843261718751	354.7467346191407	-1194.861450195313	247.6837615966797	328.8112182617188	-1153.333740234375	256.7592163085938	301.0845947265626	-1201.067504882813	309.6653137207032	194.7428436279297	-1061.832885742188	281.1724853515626	155.4757232666016	-1057.2724609375	339.8715209960938	158.1684265136719	-1062.247802734375	342.7883911132813	133.7180328369141	-1281.597778320313	240.7636108398438	104.810417175293	-1240.0732421875	
85	0.35	441.0679321289064	1211.661987304688	-1007.906799316406	332.3981018066407	1207.939086914063	-998.7821044921877	491.4002380371095	1111.19775390625	-1195.81396484375	258.2825012207032	1139.976684570313	-1191.627197265625	567.1992797851564	869.2752075195315	-1012.612182617188	558.4459838867189	835.401794433594	-1062.67578125	555.8940429687501	786.0474243164065	-1002.098327636719	536.2550048828126	754.5875244140626	-1047.58251953125	517.1666870117189	437.1305236816407	-706.7217407226564	516.4545898437501	391.118377685547	-747.7229614257814	512.6083984375001	381.6833801269532	-687.6322631835939	500.206024169922	338.6718750000001	-727.1886596679689	452.3613891601564	319.4175415039063	-576.4147338867189	409.9016418457032	302.5253906250001	-557.5671997070314	471.1372680664064	294.0344543457032	-539.0983276367189	400.9078063964845	251.2026062011719	-606.0156860351564	495.2005920410157	242.5124206542969	-570.4068603515626	418.1758422851564	209.9449157714844	-645.7919921875001	414.952362060547	173.1899719238282	-643.2561645507814	467.9188842773439	165.873764038086	-656.9599609375001	494.668426513672	189.8987731933594	-566.7786865234376	399.0707397460939	111.8093948364258	-641.0914916992189	453.720672607422	98.06477355957034	-648.6831054687501	502.3739318847657	113.5653381347657	-590.5458374023439	439.0828857421876	46.52758407592774	-671.6976928710939	196.4077911376954	868.2076416015627	-1197.109375	199.3311309814454	881.2661743164065	-1256.639526367188	202.8445892333985	800.3287353515627	-1248.5859375	221.5873718261719	813.9825439453127	-1305.952270507813	240.9607543945313	380.6019592285157	-1170.379272460938	238.1672058105469	350.5387268066407	-1216.147827148438	247.2771301269532	323.3087768554688	-1175.672607421875	257.0566406250001	297.2520446777344	-1224.568969726563	309.3105773925782	185.2527313232422	-1088.915771484375	280.9727478027344	145.7312622070313	-1086.08056640625	339.6398010253907	148.6636657714844	-1090.745361328125	343.4241638183594	132.7821655273438	-1310.829956054688	241.1937713623047	102.2904739379883	-1270.95849609375	
86	0.3541666666666667	440.7837219238282	1213.532348632813	-1022.1240234375	332.1323852539063	1209.557250976563	-1012.915466308594	491.3277587890626	1112.859252929688	-1209.410888671875	257.9672851562501	1141.682495117188	-1205.1611328125	566.9166259765626	870.4887695312502	-1026.0009765625	558.5375976562501	836.611267089844	-1076.117431640625	556.0166625976564	787.3341064453127	-1015.591857910156	536.5264282226564	755.7105712890626	-1061.149536132813	518.2507324218751	442.0659790039064	-716.8205566406251	517.2987670898439	395.1778259277345	-756.7794189453126	513.9090576171876	387.2360229492189	-696.3953247070314	500.9550170898439	343.2622985839844	-735.0036621093751	452.9837951660157	327.3280944824219	-583.4118041992189	410.6285095214845	310.4861145019532	-564.4207763671876	471.6693725585939	302.6203918457032	-545.7712402343751	402.2367248535157	258.1060791015626	-611.9078979492189	496.6648254394532	251.1165924072266	-576.0275268554689	420.3346252441407	216.4201660156251	-652.0458984375001	416.9299316406251	179.4229583740235	-647.2951049804689	470.2621459960939	172.3283386230469	-661.0256958007814	496.7327270507814	198.616683959961	-571.3642578125001	402.1505737304689	117.7685852050782	-644.0852661132814	457.0047912597657	104.5300750732422	-651.4797973632814	505.3699340820314	121.8284683227539	-593.5177001953126	442.9984741210939	52.19307327270509	-673.1384277343751	197.8491973876954	867.128112792969	-1208.078247070313	200.2449188232422	879.6789550781252	-1267.783569335938	204.3370208740235	798.8054199218752	-1259.204833984375	222.6646118164063	812.4322509765627	-1316.7333984375	240.6228485107422	374.8083496093751	-1190.73681640625	238.0654754638672	346.6594848632813	-1237.319458007813	247.2241668701172	317.6443786621094	-1198.1005859375	257.3238525390626	293.4126892089844	-1247.903564453125	308.5230102539063	175.613754272461	-1116.817749023438	280.5560913085938	136.52001953125	-1114.921997070313	339.3765258789063	139.683349609375	-1119.281982421875	344.1717529296876	132.2501525878907	-1339.834228515625	241.7561950683594	100.1913604736328	-1301.54150390625	
87	0.3583333333333333	440.4838867187501	1215.140258789063	-1036.25634765625	331.8609008789063	1210.90185546875	-1027.083129882813	491.2742004394532	1114.412963867188	-1222.964599609375	257.4793395996094	1142.996337890625	-1218.868408203125	566.6074829101564	871.2917480468752	-1039.764038085938	558.3983154296876	837.4858398437502	-1089.938110351563	555.4641723632814	787.9978027343752	-1029.420043945313	536.4709472656251	756.4921875000001	-1075.089111328125	519.1947021484376	447.1795654296876	-726.8905029296876	518.0897827148439	399.445037841797	-765.7505493164064	514.9087524414064	392.8211669921876	-705.1384277343751	501.9263916015626	347.9314270019532	-742.7450561523439	453.5340270996095	335.1882324218751	-590.5139770507814	411.3000488281251	318.3333435058594	-571.2168579101564	472.7438049316407	311.7433776855469	-552.4073486328126	403.4957275390626	264.7586669921876	-617.6559448242189	497.9663391113282	259.6842956542969	-581.7083129882814	422.0452270507814	222.2417907714844	-656.2224121093751	419.3093872070314	185.6543273925782	-651.8792114257814	472.5328979492189	179.0315551757813	-665.2961425781251	498.7100524902345	207.2322998046876	-576.1156616210939	405.2133789062501	124.0218582153321	-647.4655761718751	460.2089843750001	111.3221740722657	-654.6773071289064	508.1724548339845	130.1314086914063	-596.9653930664064	446.9092712402345	58.52949905395509	-675.3687744140626	199.0439147949219	865.6329345703127	-1218.910034179688	201.1216583251954	877.7695922851565	-1278.6943359375	205.6519470214844	797.0045166015627	-1269.435180664063	223.6896362304688	810.1317138671877	-1327.154174804688	240.3435058593751	369.2113342285157	-1211.203369140625	238.2546844482422	342.4891052246094	-1258.9140625	247.4410400390626	311.9272155761719	-1220.525024414063	257.6304016113282	289.6718750000001	-1270.85009765625	308.1432800292969	167.019271850586	-1144.070678710938	280.2217712402344	127.8987045288086	-1143.7705078125	339.0668640136719	131.3176422119141	-1147.755615234375	345.0228881835938	132.182373046875	-1368.419555664063	242.4459075927735	98.43885040283206	-1331.700561523438	
